<?xml version="1.0" encoding="UTF-8"?>
<svg version="1.1" xmlns="http://www.w3.org/2000/svg" width="472" height="472">
<path d="M0 0 C11.58056338 11.0503178 17.85712533 27.43474538 18.28596497 43.306427 C18.33717513 47.261673 18.31432803 51.21590125 18.27532959 55.17118263 C18.24944434 57.82653122 18.23668074 60.48167623 18.22705078 63.13713074 C18.20052579 69.73078986 18.15216923 76.32425356 18.10424805 82.91778564 C18.0644884 88.50221913 18.03333236 94.08657831 18.01312256 99.67111778 C18.00034462 102.26215119 17.97533372 104.85286878 17.94970703 107.44380188 C17.84486195 124.15305403 18.66309013 142.26337112 29.04296875 156.1484375 C32.50542852 159.64337813 36.57366588 161.51005335 41.125 163.25 C40.795 163.91 40.465 164.57 40.125 165.25 C27.5696366 169.14649209 12.911595 168.47979953 0.8203125 163.25390625 C-9.59014226 157.40055717 -14.31368275 148.25143353 -17.875 137.25 C-18.43574219 135.56970703 -18.43574219 135.56970703 -19.0078125 133.85546875 C-19.29398437 132.99566406 -19.58015625 132.13585937 -19.875 131.25 C-20.32488281 131.91644531 -20.77476562 132.58289063 -21.23828125 133.26953125 C-33.51711331 150.86344894 -47.55172192 161.53514362 -68.7265625 165.828125 C-87.94024625 168.40266327 -106.26180966 164.86161188 -121.87890625 152.9609375 C-132.34716634 143.98814313 -139.8154035 132.81281779 -141.09814453 118.81494141 C-142.03409436 102.95660649 -139.87442002 90.07534307 -129.875 77.25 C-122.05138003 68.85924029 -112.90395108 63.83196142 -102.25 59.9453125 C-101.41949127 59.64109879 -100.58898254 59.33688507 -99.73330688 59.02345276 C-90.67178948 55.74931927 -81.47788749 52.94909718 -72.25 50.1875 C-62.62633244 47.29906997 -53.02356018 44.38505254 -43.53515625 41.07421875 C-42.84880096 40.83718735 -42.16244568 40.60015594 -41.45529175 40.35594177 C-31.84962481 37.03814759 -31.84962481 37.03814759 -24.65234375 30.2890625 C-22.86232781 25.59364379 -23.27753602 21.87016922 -24.97265625 17.2734375 C-29.79268335 6.91359258 -35.13043559 2.35354572 -45.7265625 -1.71484375 C-62.06562143 -7.08686685 -81.3820386 -6.65946724 -97.0625 0.4375 C-106.67285115 5.62770567 -112.59289259 12.82786246 -117.875 22.25 C-118.535 23.343125 -119.195 24.43625 -119.875 25.5625 C-121.13810942 30.220216 -120.66437497 34.03457355 -120.2421875 38.8125 C-118.03976751 64.60880039 -118.03976751 64.60880039 -121.9296875 70.20703125 C-124.52737057 71.97607654 -126.9689903 73.07911142 -129.875 74.25 C-138.38182526 80.19188855 -143.60136452 89.82595702 -146.25 99.69921875 C-148.8614219 114.53535942 -146.57581341 128.05510386 -138.53515625 140.93359375 C-129.12312696 154.06614285 -115.37611653 161.37472087 -99.875 165.25 C-103.52382507 168.89882507 -109.38203897 167.61958489 -114.3125 167.625 C-115.45138672 167.64949219 -116.59027344 167.67398438 -117.76367188 167.69921875 C-127.92657752 167.7340431 -137.08329107 165.60573489 -145.09765625 159.06640625 C-151.29353732 152.73435197 -156.65505872 142.36605951 -156.9765625 133.42578125 C-156.94304687 132.70777344 -156.90953125 131.98976563 -156.875 131.25 C-157.535 131.25 -158.195 131.25 -158.875 131.25 C-159.1328125 131.97703125 -159.390625 132.7040625 -159.65625 133.453125 C-165.24101829 146.26945223 -178.59403254 156.39830139 -190.875 162.25 C-210.52689818 169.66453498 -230.97787115 169.27756431 -250.125 160.6875 C-263.01602167 153.73267087 -273.12463824 142.13567284 -277.875 128.25 C-281.86558428 113.01322365 -280.22254653 98.72748193 -272.6328125 85.00390625 C-262.38065364 68.29346653 -244.79688428 61.68578788 -226.875 56.25 C-224.69232345 55.57676738 -222.51007011 54.90216194 -220.328125 54.2265625 C-219.12978027 53.8555542 -217.93143555 53.4845459 -216.69677734 53.10229492 C-215.45621582 52.7179126 -214.2156543 52.33353027 -212.9375 51.9375 C-211.69049316 51.55118408 -210.44348633 51.16486816 -209.15869141 50.7668457 C-200.94705932 48.21769707 -192.74032909 45.65582231 -184.5625 43 C-183.59771729 42.69537842 -182.63293457 42.39075684 -181.63891602 42.0769043 C-174.69494848 39.79345822 -167.73952131 36.93873074 -162.875 31.25 C-160.96334603 24.1131585 -162.73059236 18.81092749 -165.875 12.25 C-171.19086275 3.96350806 -179.8676577 0.11375035 -189.13671875 -2.20703125 C-205.90406666 -5.53179781 -224.26404752 -5.43001704 -239.30859375 3.4609375 C-250.72633862 11.42033956 -256.40839747 22.08618163 -260.87182617 34.89282227 C-262.68414095 40.05914095 -262.68414095 40.05914095 -264.875 42.25 C-269.43055556 41.69444444 -269.43055556 41.69444444 -270.875 40.25 C-270.98395849 38.66502331 -271.02404997 37.07524374 -271.03613281 35.48657227 C-271.04574036 34.47204483 -271.0553479 33.4575174 -271.06524658 32.4122467 C-271.06949646 31.30811935 -271.07374634 30.203992 -271.078125 29.06640625 C-271.08382507 27.94056625 -271.08952515 26.81472626 -271.09539795 25.6547699 C-271.10486412 23.26814723 -271.11138832 20.88151139 -271.11523438 18.49487305 C-271.12494925 14.83163842 -271.15596188 11.16896237 -271.1875 7.50585938 C-271.19402863 5.19271168 -271.19927965 2.87955996 -271.203125 0.56640625 C-271.2154718 -0.53569687 -271.2278186 -1.63779999 -271.24053955 -2.77330017 C-271.23753845 -3.79097977 -271.23453735 -4.80865936 -271.23144531 -5.85717773 C-271.23509094 -6.75572983 -271.23873657 -7.65428192 -271.24249268 -8.58006287 C-271.12122009 -9.29614212 -270.99994751 -10.01222137 -270.875 -10.75 C-267.33131699 -13.11245534 -265.06946135 -13.28800131 -260.85546875 -13.78515625 C-260.16044754 -13.86873886 -259.46542633 -13.95232147 -258.74934387 -14.03843689 C-257.27287805 -14.21439935 -255.79594333 -14.38646447 -254.31860352 -14.55493164 C-252.10777882 -14.80733074 -249.89862356 -15.07144182 -247.68945312 -15.33789062 C-214.05584679 -19.33567262 -174.76756816 -23.03711906 -144.875 -3.75 C-144.01575928 -3.24251221 -143.15651855 -2.73502441 -142.27124023 -2.2121582 C-138.78987523 1.36497537 -139.14518463 4.34910966 -139.16796875 9.171875 C-139.15284744 10.03186096 -139.13772614 10.89184692 -139.12214661 11.77789307 C-139.07923239 14.51886131 -139.0704283 17.25872913 -139.0625 20 C-139.0393585 21.86070642 -139.01399388 23.7213866 -138.98632812 25.58203125 C-138.92343926 30.13811826 -138.89113306 34.6935172 -138.875 39.25 C-137.225 39.58 -135.575 39.91 -133.875 40.25 C-133.545 23.09 -133.215 5.93 -132.875 -11.75 C-122.74760726 -15.12579758 -122.74760726 -15.12579758 -117.328125 -15.6640625 C-116.1525 -15.78523437 -114.976875 -15.90640625 -113.765625 -16.03125 C-111.96351563 -16.20140625 -111.96351563 -16.20140625 -110.125 -16.375 C-108.9390625 -16.49617187 -107.753125 -16.61734375 -106.53125 -16.7421875 C-102.98076121 -17.09878681 -99.42899168 -17.43031697 -95.875 -17.75 C-94.79420166 -17.84861328 -93.71340332 -17.94722656 -92.59985352 -18.04882812 C-61.48620862 -20.68409152 -25.47398231 -21.04185363 0 0 Z M-29.38671875 47.37109375 C-38.63637964 51.80636957 -48.24363911 54.91326513 -57.9909668 58.05493164 C-66.93516841 60.95264374 -75.05701941 63.86863195 -82.875 69.25 C-84.23625 70.11625 -84.23625 70.11625 -85.625 71 C-94.82938288 80.20438288 -97.14630835 91.7175338 -97.3125 104.25 C-97.26742257 111.89273815 -96.57764247 118.41965954 -92.875 125.25 C-92.43929687 126.05695313 -92.00359375 126.86390625 -91.5546875 127.6953125 C-87.59508699 134.25137235 -82.72045726 138.5911753 -75.6875 141.625 C-61.69431585 143.91896462 -50.18494201 141.15586851 -38.4765625 133.2265625 C-30.40818638 127.096535 -21.91306026 119.17823378 -20.34715271 108.72703552 C-20.18316385 104.60394055 -20.1983049 100.52189405 -20.2890625 96.3984375 C-20.30027661 94.88817036 -20.30880631 93.37788115 -20.31478882 91.86758423 C-20.33751403 87.92480409 -20.39629002 83.9833859 -20.4630127 80.0411377 C-20.52479237 76.00547705 -20.55187928 71.96959267 -20.58203125 67.93359375 C-20.64605467 60.03844292 -20.74822903 52.14439167 -20.875 44.25 C-24.03883013 44.25 -26.59681403 45.99671328 -29.38671875 47.37109375 Z M-165.82592773 47.53564453 C-176.72454265 52.68326658 -187.99384959 56.50020652 -199.43994141 60.21606445 C-212.34014977 64.45601494 -224.31993519 69.15138964 -231.18359375 81.62890625 C-237.10472061 95.1412214 -237.03232938 109.30333652 -232.875 123.25 C-229.50385289 130.98998574 -224.33652449 137.39163204 -216.78515625 141.34375 C-207.36942738 145.02150305 -197.06951232 144.04867175 -187.875 140.25 C-175.35183718 134.62809093 -166.36711867 126.36068009 -159.875 114.25 C-158.75682624 110.89547871 -158.7547413 108.38581736 -158.76147461 104.85083008 C-158.76132858 104.20665634 -158.76118256 103.5624826 -158.7610321 102.89878845 C-158.76172805 100.77233498 -158.76950552 98.6459694 -158.77734375 96.51953125 C-158.77920906 95.04408313 -158.78063243 93.56863439 -158.78163147 92.09318542 C-158.78544774 88.21174405 -158.79527044 84.33034015 -158.80633545 80.44891357 C-158.81656869 76.48743192 -158.82113319 72.52594419 -158.82617188 68.56445312 C-158.8368935 60.79295167 -158.85395925 53.02148109 -158.875 45.25 C-161.5537409 45.25 -163.44486583 46.40539552 -165.82592773 47.53564453 Z " fill="#005BA7" transform="translate(332.875,145.75)"/>
<path d="M0 0 C0.85924072 0.50748779 1.71848145 1.01497559 2.60375977 1.5378418 C6.08512477 5.11497537 5.72981537 8.09910966 5.70703125 12.921875 C5.72215256 13.78186096 5.73727386 14.64184692 5.75285339 15.52789307 C5.79576761 18.26886131 5.8045717 21.00872913 5.8125 23.75 C5.8356415 25.61070642 5.86100612 27.4713866 5.88867188 29.33203125 C5.95156074 33.88811826 5.98386694 38.4435172 6 43 C7.65 43.33 9.3 43.66 11 44 C11 43.34 11 42.68 11 42 C13.64 42.33 16.28 42.66 19 43 C19.99 40.36 20.98 37.72 22 35 C27.4684843 43.74957488 26.80066431 61.22040041 25 71 C22.23931902 75.00456196 19.40505603 76.22511611 15 78 C6.49317474 83.94188855 1.27363548 93.57595702 -1.375 103.44921875 C-3.9864219 118.28535942 -1.70081341 131.80510386 6.33984375 144.68359375 C15.75187304 157.81614285 29.49888347 165.12472087 45 169 C41.35117493 172.64882507 35.49296103 171.36958489 30.5625 171.375 C29.42361328 171.39949219 28.28472656 171.42398438 27.11132812 171.44921875 C16.94842248 171.4840431 7.79170893 169.35573489 -0.22265625 162.81640625 C-6.41853732 156.48435197 -11.78005872 146.11605951 -12.1015625 137.17578125 C-12.06804687 136.45777344 -12.03453125 135.73976563 -12 135 C-12.66 135 -13.32 135 -14 135 C-14.2578125 135.72703125 -14.515625 136.4540625 -14.78125 137.203125 C-20.36601829 150.01945223 -33.71903254 160.14830139 -46 166 C-65.65189818 173.41453498 -86.10287115 173.02756431 -105.25 164.4375 C-118.14102167 157.48267087 -128.24963824 145.88567284 -133 132 C-136.99058428 116.76322365 -135.34754653 102.47748193 -127.7578125 88.75390625 C-117.50565364 72.04346653 -99.92188428 65.43578788 -82 60 C-79.81732345 59.32676738 -77.63507011 58.65216194 -75.453125 57.9765625 C-74.25478027 57.6055542 -73.05643555 57.2345459 -71.82177734 56.85229492 C-70.58121582 56.4679126 -69.3406543 56.08353027 -68.0625 55.6875 C-66.81549316 55.30118408 -65.56848633 54.91486816 -64.28369141 54.5168457 C-56.07205932 51.96769707 -47.86532909 49.40582231 -39.6875 46.75 C-38.72271729 46.44537842 -37.75793457 46.14075684 -36.76391602 45.8269043 C-29.81994848 43.54345822 -22.86452131 40.68873074 -18 35 C-16.08834603 27.8631585 -17.85559236 22.56092749 -21 16 C-26.31586275 7.71350806 -34.9926577 3.86375035 -44.26171875 1.54296875 C-61.02906666 -1.78179781 -79.38904752 -1.68001704 -94.43359375 7.2109375 C-105.85133862 15.17033956 -111.53339747 25.83618163 -115.99682617 38.64282227 C-117.80914095 43.80914095 -117.80914095 43.80914095 -120 46 C-124.55555556 45.44444444 -124.55555556 45.44444444 -126 44 C-126.10895849 42.41502331 -126.14904997 40.82524374 -126.16113281 39.23657227 C-126.17074036 38.22204483 -126.1803479 37.2075174 -126.19024658 36.1622467 C-126.19449646 35.05811935 -126.19874634 33.953992 -126.203125 32.81640625 C-126.20882507 31.69056625 -126.21452515 30.56472626 -126.22039795 29.4047699 C-126.22986412 27.01814723 -126.23638832 24.63151139 -126.24023438 22.24487305 C-126.24994925 18.58163842 -126.28096188 14.91896237 -126.3125 11.25585938 C-126.31902863 8.94271168 -126.32427965 6.62955996 -126.328125 4.31640625 C-126.3404718 3.21430313 -126.3528186 2.11220001 -126.36553955 0.97669983 C-126.36253845 -0.04097977 -126.35953735 -1.05865936 -126.35644531 -2.10717773 C-126.36009094 -3.00572983 -126.36373657 -3.90428192 -126.36749268 -4.83006287 C-126.24622009 -5.54614212 -126.12494751 -6.26222137 -126 -7 C-122.45631699 -9.36245534 -120.19446135 -9.53800131 -115.98046875 -10.03515625 C-115.28544754 -10.11873886 -114.59042633 -10.20232147 -113.87434387 -10.28843689 C-112.39787805 -10.46439935 -110.92094333 -10.63646447 -109.44360352 -10.80493164 C-107.23277882 -11.05733074 -105.02362356 -11.32144182 -102.81445312 -11.58789062 C-69.18084679 -15.58567262 -29.89256816 -19.28711906 0 0 Z M-20.95092773 51.28564453 C-31.84954265 56.43326658 -43.11884959 60.25020652 -54.56494141 63.96606445 C-67.46514977 68.20601494 -79.44493519 72.90138964 -86.30859375 85.37890625 C-92.22972061 98.8912214 -92.15732938 113.05333652 -88 127 C-84.62885289 134.73998574 -79.46152449 141.14163204 -71.91015625 145.09375 C-62.49442738 148.77150305 -52.19451232 147.79867175 -43 144 C-30.47683718 138.37809093 -21.49211867 130.11068009 -15 118 C-13.88182624 114.64547871 -13.8797413 112.13581736 -13.88647461 108.60083008 C-13.88632858 107.95665634 -13.88618256 107.3124826 -13.8860321 106.64878845 C-13.88672805 104.52233498 -13.89450552 102.3959694 -13.90234375 100.26953125 C-13.90420906 98.79408313 -13.90563243 97.31863439 -13.90663147 95.84318542 C-13.91044774 91.96174405 -13.92027044 88.08034015 -13.93133545 84.19891357 C-13.94156869 80.23743192 -13.94613319 76.27594419 -13.95117188 72.31445312 C-13.9618935 64.54295167 -13.97895925 56.77148109 -14 49 C-16.6787409 49 -18.56986583 50.15539552 -20.95092773 51.28564453 Z " fill="#25215F" transform="translate(188,142)"/>
<path d="M0 0 C1 1 1 1 1.12025452 3.39808655 C1.11803391 4.46175949 1.11581329 5.52543243 1.11352539 6.62133789 C1.11341209 8.42309227 1.11341209 8.42309227 1.11329651 10.26124573 C1.10813522 11.5685112 1.10297394 12.87577667 1.09765625 14.22265625 C1.09579198 15.56644132 1.09436812 16.91022707 1.09336853 18.25401306 C1.08954402 21.79682277 1.07971432 25.3395917 1.06866455 28.88238525 C1.05844899 32.49515227 1.0538706 36.10792584 1.04882812 39.72070312 C1.03809198 46.81382039 1.02049572 53.90690325 1 61 C8.26 61 15.52 61 23 61 C25.16419412 65.32838824 25.20068706 66.49742351 24 71 C21.54724859 72.2263757 19.9494219 72.11415314 17.2109375 72.09765625 C16.26992188 72.09443359 15.32890625 72.09121094 14.359375 72.08789062 C13.37453125 72.07951172 12.3896875 72.07113281 11.375 72.0625 C10.38242187 72.05798828 9.38984375 72.05347656 8.3671875 72.04882812 C5.9113984 72.03702145 3.45572896 72.020554 1 72 C1.08399075 90.48952019 1.17915748 108.97895092 1.28752708 127.46834469 C1.33758927 136.05382962 1.3840328 144.63930531 1.421875 153.22485352 C1.45487826 160.71045063 1.49475521 168.19597466 1.54279006 175.68149096 C1.5679724 179.64279473 1.58977781 183.60405052 1.60334396 187.56541252 C1.6162397 191.29923541 1.63837386 195.03289308 1.66738319 198.76662445 C1.68067778 200.77946781 1.68436589 202.79236757 1.68769836 204.80525208 C1.7052969 216.53111281 1.7052969 216.53111281 6.0625 227.1875 C8.71239701 229.21887271 8.71239701 229.21887271 11.01171875 228.8515625 C12.54489131 228.48231675 14.06869924 228.07251278 15.58203125 227.62890625 C19.31583227 226.65775607 23.17486635 226.45008649 27 227 C29 229 29 229 29 231.8125 C27.69251925 235.9800949 25.71459558 237.92571098 22 240 C10.49477769 244.85043099 -3.47360634 244.6352317 -15 240 C-24.7765276 235.57867483 -31.50815794 228.55094609 -35.375 218.5 C-39.88788455 204.3251688 -40.13759395 189.89905031 -40.19923019 175.15828323 C-40.21121655 172.5406214 -40.23071285 169.92311048 -40.25234985 167.30551147 C-40.31332679 159.87169516 -40.36790038 152.43790195 -40.40136719 145.00390625 C-40.4224872 140.43170545 -40.45791277 135.8597949 -40.50212479 131.28776169 C-40.51613276 129.56331195 -40.52497218 127.83881105 -40.52817917 126.1143074 C-40.56685569 107.31685236 -42.98525193 89.55739767 -56 75 C-61.7821208 69.89961396 -67.61945558 66.22808888 -75 64 C-75 63.34 -75 62.68 -75 62 C-74.11030518 61.93268677 -74.11030518 61.93268677 -73.20263672 61.86401367 C-44.9387141 60.39636911 -44.9387141 60.39636911 -21.5234375 46.09765625 C-13.17919124 34.60827101 -10.60616014 21.95669794 -10.5534668 8.05419922 C-10.43042114 2.47895799 -10.43042114 2.47895799 -8.1640625 -0.04296875 C-5.13959043 -1.38050604 -3.13859433 -0.83695849 0 0 Z " fill="#26215F" transform="translate(397,70)"/>
<path d="M0 0 C122.76 0 245.52 0 372 0 C372 0.99 372 1.98 372 3 C249.24 3 126.48 3 0 3 C0 2.01 0 1.02 0 0 Z " fill="#282780" transform="translate(53,322)"/>
<path d="M0 0 C2.31 0 4.62 0 7 0 C9.08203125 2.24609375 9.08203125 2.24609375 10.8125 5.4375 C11.47521779 6.61721145 12.13798064 7.79689758 12.80078125 8.9765625 C13.14834473 9.61754883 13.4959082 10.25853516 13.85400391 10.91894531 C15.50436135 13.91588754 17.25573394 16.85032997 19.00463867 19.79052734 C21.01745769 23.18520824 23.00628234 26.59406566 25 30 C25.33 20.1 25.66 10.2 26 0 C27.98 0 29.96 0 32 0 C32 14.85 32 29.7 32 45 C30.02 45 28.04 45 26 45 C24.20807486 42.81728268 23.03882596 41.02365307 21.75 38.5625 C20.98599367 37.19773939 20.22165711 35.83316361 19.45703125 34.46875 C19.06209473 33.74558594 18.6671582 33.02242188 18.26025391 32.27734375 C16.5407497 29.17011103 14.73302632 26.11818059 12.9206543 23.06445312 C10.93585914 19.71627522 8.96981687 16.35701186 7 13 C6.67 23.56 6.34 34.12 6 45 C4.02 45 2.04 45 0 45 C0 30.15 0 15.3 0 0 Z " fill="#26215F" transform="translate(294,335)"/>
<path d="M0 0 C3.04068579 3.13877243 3.92064165 5.94850185 4.25 10.3125 C3.97336753 14.39282894 3.24271334 16.59726253 1 20 C-1.93398879 22.18168397 -4.48177347 23.1858032 -8 24 C-7.60619141 24.50450684 -7.21238281 25.00901367 -6.80664062 25.52880859 C-5.03276389 27.80703312 -3.26631498 30.0909087 -1.5 32.375 C-0.87996094 33.1690625 -0.25992188 33.963125 0.37890625 34.78125 C0.96542969 35.54179687 1.55195312 36.30234375 2.15625 37.0859375 C2.70087891 37.7876709 3.24550781 38.4894043 3.80664062 39.21240234 C5 41 5 41 5 43 C1.97447707 43.38429678 -0.0705578 43.62503614 -3 43 C-5.54004918 40.91673028 -7.17396161 38.37441405 -8.9375 35.625 C-9.41767578 34.92632812 -9.89785156 34.22765625 -10.39257812 33.5078125 C-12.06328696 31.05712536 -13.67281629 28.65436742 -15 26 C-15.33 31.61 -15.66 37.22 -16 43 C-18.31 43 -20.62 43 -23 43 C-23 28.48 -23 13.96 -23 -1 C-14.4332231 -3.44765054 -7.92363841 -4.3087066 0 0 Z M-16 2 C-16 7.94 -16 13.88 -16 20 C-11.0702474 21.23243815 -9.39872517 20.36227833 -5 18 C-2.52570428 14.28855642 -2.84847128 11.3265951 -3.47265625 7.0625 C-3.89257389 4.8650005 -3.89257389 4.8650005 -5.5625 2.9375 C-8.80919867 1.52136123 -8.80919867 1.52136123 -16 2 Z " fill="#26215F" transform="translate(121,337)"/>
<path d="M0 0 C2.31 0 4.62 0 7 0 C7.33 5.61 7.66 11.22 8 17 C8.78246094 15.85660156 9.56492187 14.71320313 10.37109375 13.53515625 C11.39317346 12.04423264 12.41531191 10.5533493 13.4375 9.0625 C13.95376953 8.30775391 14.47003906 7.55300781 15.00195312 6.77539062 C15.49501953 6.05673828 15.98808594 5.33808594 16.49609375 4.59765625 C16.95169678 3.93258057 17.4072998 3.26750488 17.87670898 2.58227539 C19 1 19 1 20 0 C22.33297433 -0.04092937 24.66705225 -0.04241723 27 0 C25.28460272 5.24421454 21.96994345 9.06826715 18.54492188 13.27148438 C15.29374396 17.21906739 15.29374396 17.21906739 14 22 C15.1534613 24.45813811 15.1534613 24.45813811 16.96484375 26.9140625 C17.59970703 27.83960938 18.23457031 28.76515625 18.88867188 29.71875 C19.56478516 30.6778125 20.24089844 31.636875 20.9375 32.625 C22.26294293 34.53119789 23.58475648 36.43992626 24.90234375 38.3515625 C25.49523193 39.19541504 26.08812012 40.03926758 26.69897461 40.90869141 C28 43 28 43 28 45 C23.03038488 45.82106685 23.03038488 45.82106685 20 45 C17.20458358 42.21070047 15.41400875 38.93252079 13.5 35.5 C12.96375 34.59378906 12.4275 33.68757813 11.875 32.75390625 C10.55695862 30.5179432 9.27490707 28.2608352 8 26 C7.67 32.27 7.34 38.54 7 45 C4.69 45 2.38 45 0 45 C0 30.15 0 15.3 0 0 Z " fill="#26215F" transform="translate(348,335)"/>
<path d="M0 0 C2.31 0 4.62 0 7 0 C22 41.71615721 22 41.71615721 22 45 C19.69 45 17.38 45 15 45 C14.32694982 43.39850114 13.66177773 41.79368971 13 40.1875 C12.62875 39.29417969 12.2575 38.40085937 11.875 37.48046875 C11 35 11 35 11 32 C6.05 32 1.1 32 -4 32 C-4.28875 33.4025 -4.5775 34.805 -4.875 36.25 C-5.53723627 39.46657616 -6.42445965 42.11371599 -8 45 C-9.98 45 -11.96 45 -14 45 C-12.76385097 38.93158644 -11.17400901 33.10659853 -9.1796875 27.24609375 C-8.91616486 26.45977066 -8.65264221 25.67344757 -8.38113403 24.86329651 C-7.55002403 22.38657143 -6.71263545 19.91202477 -5.875 17.4375 C-5.30557042 15.74428153 -4.73655625 14.0509233 -4.16796875 12.35742188 C-2.78343627 8.23665217 -1.39327428 4.11782181 0 0 Z M3 9 C2.16320723 11.62394306 1.33043058 14.24904384 0.5 16.875 C0.26152344 17.62136719 0.02304688 18.36773437 -0.22265625 19.13671875 C-1.52770415 22.99242067 -1.52770415 22.99242067 -2 27 C1.63 27 5.26 27 9 27 C6.82536528 17.90644792 6.82536528 17.90644792 4 9 C3.67 9 3.34 9 3 9 Z " fill="#26215F" transform="translate(254,335)"/>
<path d="M0 0 C1.4540625 0.0309375 1.4540625 0.0309375 2.9375 0.0625 C6.27058936 8.03603343 9.13331802 16.1542644 11.93896484 24.32397461 C12.69501508 26.52184667 13.4586875 28.71697901 14.22265625 30.91210938 C14.70619197 32.31494473 15.18928156 33.71793396 15.671875 35.12109375 C15.89993835 35.77420029 16.12800171 36.42730682 16.36297607 37.10020447 C17.31702723 39.89888891 17.9375 42.08046974 17.9375 45.0625 C15.6275 45.0625 13.3175 45.0625 10.9375 45.0625 C10.26692113 43.2722939 9.6011531 41.48028511 8.9375 39.6875 C8.56625 38.68976563 8.195 37.69203125 7.8125 36.6640625 C6.9375 34.0625 6.9375 34.0625 6.9375 32.0625 C1.9875 32.0625 -2.9625 32.0625 -8.0625 32.0625 C-8.3925 34.3725 -8.7225 36.6825 -9.0625 39.0625 C-9.68506028 41.07666562 -10.33816653 43.08265519 -11.0625 45.0625 C-13.3725 45.0625 -15.6825 45.0625 -18.0625 45.0625 C-15.83624355 36.30209787 -13.06254181 27.75302883 -10.19140625 19.18847656 C-9.42774999 16.90838888 -8.67065621 14.62618973 -7.9140625 12.34375 C-7.43007302 10.89310049 -6.94571217 9.44257481 -6.4609375 7.9921875 C-6.23489838 7.31002167 -6.00885925 6.62785583 -5.77597046 5.92501831 C-3.80720654 0.07769809 -3.80720654 0.07769809 0 0 Z M-1.0625 10.0625 C-2.7125 15.6725 -4.3625 21.2825 -6.0625 27.0625 C-2.4325 27.0625 1.1975 27.0625 4.9375 27.0625 C3.84737395 20.94102296 2.61845324 15.6681295 -0.0625 10.0625 C-0.3925 10.0625 -0.7225 10.0625 -1.0625 10.0625 Z " fill="#26215F" transform="translate(408.0625,334.9375)"/>
<path d="M0 0 C-0.33 1.65 -0.66 3.3 -1 5 C-1.60328125 4.90460938 -2.2065625 4.80921875 -2.828125 4.7109375 C-3.62734375 4.60007812 -4.4265625 4.48921875 -5.25 4.375 C-6.43335938 4.20097656 -6.43335938 4.20097656 -7.640625 4.0234375 C-10.37840032 3.99624106 -11.74360183 4.4708295 -14 6 C-15.26010343 8.80857748 -15.26010343 8.80857748 -15 12 C-12.43714012 15.47226177 -9.71213437 17.22683255 -5.875 19 C-3.36612261 20.20710139 -1.96837993 21.0326082 0 23.0625 C1.72860946 28.14029029 2.39642699 33.98037582 0.0859375 38.9765625 C-2.69187217 42.6145971 -5.56622115 44.24709416 -10 45 C-14.95852488 44.91477535 -18.81582447 44.78945035 -23 42 C-22.67 40.35 -22.34 38.7 -22 37 C-21.319375 37.165 -20.63875 37.33 -19.9375 37.5 C-13.83725157 38.59357661 -13.83725157 38.59357661 -8.0625 36.9375 C-6.26455946 33.65890254 -6.30636554 31.65734532 -7 28 C-8.79691879 26.42542722 -10.66403944 25.38185205 -12.7578125 24.234375 C-16.80648729 22.00548783 -20.9921954 19.53243207 -22.76171875 15.0859375 C-23.659929 10.08300299 -22.52392012 6.43861815 -20 2 C-14.13513387 -3.498312 -7.0951946 -2.76885643 0 0 Z " fill="#26215F" transform="translate(76,336)"/>
<path d="M0 0 C2.31 0 4.62 0 7 0 C7 13.2 7 26.4 7 40 C11.29 40 15.58 40 20 40 C20 41.65 20 43.3 20 45 C13.4 45 6.8 45 0 45 C0 30.15 0 15.3 0 0 Z " fill="#26215F" transform="translate(205,335)"/>
<path d="M0 0 C2.31 0 4.62 0 7 0 C7 14.85 7 29.7 7 45 C4.69 45 2.38 45 0 45 C0 30.15 0 15.3 0 0 Z " fill="#26215F" transform="translate(145,335)"/>
</svg>
